<svg width="24" height="25" viewBox="0 0 24 25" fill="none" xmlns="http://www.w3.org/2000/svg">
<path d="M15.0002 23.25C14.7302 23.25 14.4802 23.1 14.3502 22.87C14.2202 22.63 14.2202 22.35 14.3602 22.11L15.4102 20.36C15.6202 20.01 16.0802 19.89 16.4402 20.1C16.8002 20.31 16.9102 20.77 16.7002 21.13L16.4302 21.58C19.1902 20.93 21.2602 18.45 21.2602 15.49C21.2602 15.08 21.6002 14.74 22.0102 14.74C22.4202 14.74 22.7602 15.08 22.7602 15.49C22.7502 19.77 19.2702 23.25 15.0002 23.25Z" fill="white"/>
<path d="M2 10.25C1.59 10.25 1.25 9.91 1.25 9.5C1.25 5.23 4.73 1.75 9 1.75C9.27 1.75 9.52 1.9 9.65 2.13C9.78 2.37 9.78 2.65 9.64 2.89L8.59 4.64C8.38 4.99 7.92 5.11 7.56 4.89C7.21 4.68 7.09 4.22 7.31 3.86L7.58 3.41C4.81 4.06 2.75 6.54 2.75 9.5C2.75 9.91 2.41 10.25 2 10.25Z" fill="white"/>
<path d="M16.4002 8.70999L12.6402 6.67999C12.2402 6.46999 11.7702 6.46999 11.3702 6.67999L7.60016 8.70999C7.33016 8.85999 7.16016 9.14999 7.16016 9.46999C7.16016 9.79999 7.33016 10.09 7.60016 10.24L11.3602 12.27C11.5602 12.38 11.7802 12.43 12.0002 12.43C12.2202 12.43 12.4402 12.38 12.6402 12.27L16.4002 10.24C16.6702 10.09 16.8402 9.79999 16.8402 9.46999C16.8402 9.14999 16.6702 8.85999 16.4002 8.70999Z" fill="white"/>
<path d="M10.74 12.97L7.24 11.22C6.97 11.09 6.66 11.1 6.4 11.26C6.15 11.42 6 11.69 6 11.99V15.3C6 15.87 6.32 16.39 6.83 16.64L10.33 18.39C10.45 18.45 10.58 18.48 10.72 18.48C10.88 18.48 11.03 18.44 11.17 18.35C11.43 18.19 11.58 17.92 11.58 17.62V14.31C11.57 13.74 11.26 13.23 10.74 12.97Z" fill="white"/>
<path d="M17.5899 11.26C17.3299 11.1 17.0199 11.09 16.7499 11.22L13.2499 12.97C12.7399 13.23 12.4199 13.74 12.4199 14.31V17.62C12.4199 17.92 12.5699 18.19 12.8299 18.35C12.9699 18.44 13.1199 18.48 13.2799 18.48C13.4099 18.48 13.5399 18.45 13.6699 18.39L17.1699 16.64C17.6799 16.38 17.9999 15.87 17.9999 15.3V11.99C17.9999 11.69 17.8499 11.42 17.5899 11.26Z" fill="white"/>
</svg>
