<svg width="12" height="12" viewBox="0 0 12 12" fill="none" xmlns="http://www.w3.org/2000/svg">
<path d="M6 1C3.245 1 1 3.245 1 6C1 8.755 3.245 11 6 11C8.755 11 11 8.755 11 6C11 3.245 8.755 1 6 1ZM8 6.375H6.375V8C6.375 8.205 6.205 8.375 6 8.375C5.795 8.375 5.625 8.205 5.625 8V6.375H4C3.795 6.375 3.625 6.205 3.625 6C3.625 5.795 3.795 5.625 4 5.625H5.625V4C5.625 3.795 5.795 3.625 6 3.625C6.205 3.625 6.375 3.795 6.375 4V5.625H8C8.205 5.625 8.375 5.795 8.375 6C8.375 6.205 8.205 6.375 8 6.375Z" fill="white" fill-opacity="0.5"/>
</svg>
