<svg width="32" height="25" viewBox="0 0 32 25" fill="none" xmlns="http://www.w3.org/2000/svg">
<path d="M18.3018 9.41061V14.7506C18.3018 18.0706 15.9518 19.4206 13.0818 17.7706L11.8018 17.0306C11.4918 16.8506 11.3018 16.5206 11.3018 16.1606V8.00061C11.3018 7.64061 11.4918 7.31061 11.8018 7.13061L13.0818 6.39061C15.9518 4.74061 18.3018 6.09061 18.3018 9.41061Z" fill="white"/>
<path d="M10.3018 8.87062V15.3006C10.3018 15.6906 9.88176 15.9306 9.55176 15.7306L8.45176 15.0906C5.58176 13.4406 5.58176 10.7206 8.45176 9.07062L9.55176 8.43062C9.88176 8.24062 10.3018 8.48062 10.3018 8.87062Z" fill="white"/>
<line x1="20.2879" y1="12.0806" x2="31.3179" y2="12.0806" stroke="white"/>
</svg>
