<svg width="32" height="24" viewBox="0 0 32 24" fill="none" xmlns="http://www.w3.org/2000/svg">
<path d="M18 9.33V14.67C18 17.99 15.65 19.34 12.78 17.69L11.5 16.95C11.19 16.77 11 16.44 11 16.08V7.92C11 7.56 11.19 7.23 11.5 7.05L12.78 6.31C15.65 4.66 18 6.01 18 9.33Z" fill="#A4A4A4"/>
<path d="M9.99957 8.79V15.22C9.99957 15.61 9.57957 15.85 9.24957 15.65L8.14957 15.01C5.27957 13.36 5.27957 10.64 8.14957 8.99L9.24957 8.35C9.57957 8.16 9.99957 8.4 9.99957 8.79Z" fill="#A4A4A4"/>
<line x1="19.9863" y1="12" x2="31.0163" y2="12" stroke="#A4A4A4"/>
</svg>
