<svg width="17" height="20" viewBox="0 0 17 20" fill="none" xmlns="http://www.w3.org/2000/svg">
<path d="M15.8582 8.38744L4.90126 15.1382C4.65586 15.2886 4.34169 15.2742 4.11192 15.0966C3.07093 14.2949 2.14091 13.4821 1.52038 12.7989C1.52038 12.7989 0.985821 12.2516 0.75449 11.9044C0.38092 11.4308 0.201171 10.8116 0.201171 10.2099C0.201171 9.5347 0.398115 8.89627 0.790441 8.38584C0.879535 8.29464 1.21872 7.89302 1.53914 7.565C3.40855 5.5233 8.28839 2.15033 10.8549 1.12788C11.2285 0.963071 12.2257 0.619054 12.7431 0.599853C13.2417 0.599853 13.7231 0.708659 14.1858 0.947071C14.7547 1.27509 15.2002 1.78391 15.4503 2.38714C15.6113 2.80636 15.8598 4.06403 15.8598 4.10083C16.0208 4.99847 16.1411 6.25934 16.2005 7.73141C16.2115 7.99542 16.0786 8.25144 15.8582 8.38744Z" fill="#1E2D48"/>
<path opacity="0.4" d="M15.1251 12.0234C15.6081 11.7241 16.2161 12.1066 16.1927 12.681C16.1349 14.0283 16.0348 15.2155 15.9129 16.0988C15.8942 16.118 15.6456 17.6844 15.3596 18.2141C14.861 19.1981 13.8825 19.7998 12.8306 19.7998L12.7431 19.7998C12.0647 19.7821 10.622 19.1805 10.622 19.1437C9.89517 18.8413 8.9464 18.3293 7.92573 17.7132C7.4662 17.4348 7.45526 16.7516 7.91479 16.4684L15.1251 12.0234Z" fill="#1E2D48"/>
</svg>
