<svg width="24" height="25" viewBox="0 0 24 25" fill="none" xmlns="http://www.w3.org/2000/svg">
<path d="M19.24 6.08H18.84L15.46 2.7C15.19 2.43 14.75 2.43 14.47 2.7C14.2 2.97 14.2 3.41 14.47 3.69L16.86 6.08H7.14L9.53 3.69C9.8 3.42 9.8 2.98 9.53 2.7C9.26 2.43 8.82 2.43 8.54 2.7L5.17 6.08H4.77C3.87 6.08 2 6.08 2 8.64C2 9.61 2.2 10.25 2.62 10.67C2.86 10.92 3.15 11.05 3.46 11.12C3.75 11.19 4.06 11.2 4.36 11.2H19.64C19.95 11.2 20.24 11.18 20.52 11.12C21.36 10.92 22 10.32 22 8.64C22 6.08 20.13 6.08 19.24 6.08Z" fill="white"/>
<path d="M19.0897 12.5H4.90971C4.28971 12.5 3.81971 13.05 3.91971 13.66L4.75971 18.8C5.03971 20.52 5.78971 22.5 9.11971 22.5H14.7297C18.0997 22.5 18.6997 20.81 19.0597 18.92L20.0697 13.69C20.1897 13.07 19.7197 12.5 19.0897 12.5ZM14.8797 16.55L11.6297 19.55C11.4897 19.68 11.3097 19.75 11.1197 19.75C10.9297 19.75 10.7397 19.68 10.5897 19.53L9.08971 18.03C8.79971 17.74 8.79971 17.26 9.08971 16.97C9.38971 16.68 9.85971 16.68 10.1597 16.97L11.1497 17.96L13.8697 15.45C14.1697 15.17 14.6497 15.19 14.9297 15.49C15.2097 15.8 15.1897 16.27 14.8797 16.55Z" fill="white"/>
</svg>
