<svg width="64" height="66" viewBox="0 0 64 66" fill="none" xmlns="http://www.w3.org/2000/svg">
<path d="M57.9622 51.8984V59.9848H5.5249V51.8984C5.5249 50.4159 6.70474 49.2029 8.14677 49.2029H55.3404C56.7824 49.2029 57.9622 50.4159 57.9622 51.8984Z" fill="#D0C4FF" stroke="#D0C4FF" stroke-width="1.5" stroke-miterlimit="10" stroke-linecap="round" stroke-linejoin="round"/>
<path opacity="0.6" d="M21.256 30.3345H10.7686V49.2029H21.256V30.3345Z" fill="#D0C4FF"/>
<path opacity="0.4" d="M31.7436 30.3345H21.2561V49.2029H31.7436V30.3345Z" fill="#D0C4FF"/>
<path opacity="0.6" d="M42.231 30.3345H31.7435V49.2029H42.231V30.3345Z" fill="#D0C4FF"/>
<path opacity="0.4" d="M52.7184 30.3345H42.231V49.2029H52.7184V30.3345Z" fill="#D0C4FF"/>
<path d="M60.5841 62.0064H2.90305C1.82808 62.0064 0.936646 61.0899 0.936646 59.9848C0.936646 58.8796 1.82808 57.9631 2.90305 57.9631H60.5841C61.6591 57.9631 62.5505 58.8796 62.5505 59.9848C62.5505 61.0899 61.6591 62.0064 60.5841 62.0064Z" fill="#D0C4FF"/>
<path d="M56.3104 16.183L32.7136 6.47936C32.1893 6.26372 31.2979 6.26372 30.7735 6.47936L7.17669 16.183C6.25904 16.5604 5.5249 17.6655 5.5249 18.6898V27.6389C5.5249 29.1214 6.70474 30.3343 8.14677 30.3343H55.3404C56.7824 30.3343 57.9622 29.1214 57.9622 27.6389V18.6898C57.9622 17.6655 57.2281 16.5604 56.3104 16.183ZM31.7436 23.5956C29.5674 23.5956 27.8108 21.7897 27.8108 19.5524C27.8108 17.3151 29.5674 15.5092 31.7436 15.5092C33.9197 15.5092 35.6764 17.3151 35.6764 19.5524C35.6764 21.7897 33.9197 23.5956 31.7436 23.5956Z" fill="#D0C4FF"/>
</svg>
