<svg width="51" height="53" viewBox="0 0 51 53" fill="none" xmlns="http://www.w3.org/2000/svg">
<path d="M44.625 25.4681H6.375C4.335 25.4681 2.65625 23.7558 2.65625 21.675V14.4789C2.65625 13.005 3.65495 11.5094 4.9937 10.9676L24.1187 3.16462C24.9262 2.8395 26.0738 2.8395 26.8813 3.16462L46.0063 10.9676C47.3451 11.5094 48.3438 13.0267 48.3438 14.4789V21.675C48.3438 23.7558 46.665 25.4681 44.625 25.4681ZM25.5 6.15578C25.415 6.15578 25.3301 6.15567 25.2876 6.17734L6.18369 13.9804C6.05619 14.0454 5.84375 14.3272 5.84375 14.4789V21.675C5.84375 21.9785 6.0775 22.2169 6.375 22.2169H44.625C44.9225 22.2169 45.1562 21.9785 45.1562 21.675V14.4789C45.1562 14.3272 44.9651 14.0454 44.8163 13.9804L25.6913 6.17734C25.6488 6.15567 25.585 6.15578 25.5 6.15578Z" fill="white"/>
<path d="M46.75 49.3106H4.25C3.37875 49.3106 2.65625 48.5737 2.65625 47.685V41.1825C2.65625 39.1017 4.335 37.3894 6.375 37.3894H44.625C46.665 37.3894 48.3438 39.1017 48.3438 41.1825V47.685C48.3438 48.5737 47.6213 49.3106 46.75 49.3106ZM5.84375 46.0594H45.1562V41.1825C45.1562 40.879 44.9225 40.6406 44.625 40.6406H6.375C6.0775 40.6406 5.84375 40.879 5.84375 41.1825V46.0594Z" fill="white"/>
<path d="M8.5 40.6406C7.62875 40.6406 6.90625 39.9037 6.90625 39.015V23.8425C6.90625 22.9538 7.62875 22.2169 8.5 22.2169C9.37125 22.2169 10.0938 22.9538 10.0938 23.8425V39.015C10.0938 39.9037 9.37125 40.6406 8.5 40.6406Z" fill="white"/>
<path d="M17 40.6406C16.1288 40.6406 15.4062 39.9037 15.4062 39.015V23.8425C15.4062 22.9538 16.1288 22.2169 17 22.2169C17.8712 22.2169 18.5938 22.9538 18.5938 23.8425V39.015C18.5938 39.9037 17.8712 40.6406 17 40.6406Z" fill="white"/>
<path d="M25.5 40.6406C24.6288 40.6406 23.9062 39.9037 23.9062 39.015V23.8425C23.9062 22.9538 24.6288 22.2169 25.5 22.2169C26.3712 22.2169 27.0938 22.9538 27.0938 23.8425V39.015C27.0938 39.9037 26.3712 40.6406 25.5 40.6406Z" fill="white"/>
<path d="M34 40.6406C33.1288 40.6406 32.4062 39.9037 32.4062 39.015V23.8425C32.4062 22.9538 33.1288 22.2169 34 22.2169C34.8712 22.2169 35.5938 22.9538 35.5938 23.8425V39.015C35.5938 39.9037 34.8712 40.6406 34 40.6406Z" fill="white"/>
<path d="M42.5 40.6406C41.6288 40.6406 40.9062 39.9037 40.9062 39.015V23.8425C40.9062 22.9538 41.6288 22.2169 42.5 22.2169C43.3712 22.2169 44.0938 22.9538 44.0938 23.8425V39.015C44.0938 39.9037 43.3712 40.6406 42.5 40.6406Z" fill="white"/>
<path d="M48.875 49.3106H2.125C1.25375 49.3106 0.53125 48.5737 0.53125 47.685C0.53125 46.7963 1.25375 46.0594 2.125 46.0594H48.875C49.7463 46.0594 50.4688 46.7963 50.4688 47.685C50.4688 48.5737 49.7463 49.3106 48.875 49.3106Z" fill="white"/>
<path d="M25.5 20.0494C22.865 20.0494 20.7188 17.8602 20.7188 15.1725C20.7188 12.4848 22.865 10.2956 25.5 10.2956C28.135 10.2956 30.2812 12.4848 30.2812 15.1725C30.2812 17.8602 28.135 20.0494 25.5 20.0494ZM25.5 13.5469C24.6288 13.5469 23.9062 14.2838 23.9062 15.1725C23.9062 16.0612 24.6288 16.7981 25.5 16.7981C26.3713 16.7981 27.0938 16.0612 27.0938 15.1725C27.0938 14.2838 26.3713 13.5469 25.5 13.5469Z" fill="white"/>
</svg>
