<svg width="28" height="28" viewBox="0 0 28 28" fill="none" xmlns="http://www.w3.org/2000/svg">
<path d="M12.8917 17.4417L10.7333 19.6C10.2783 20.055 9.55501 20.055 9.08834 19.6117C8.96001 19.4833 8.83168 19.3667 8.70334 19.2383C7.50168 18.025 6.41668 16.7533 5.44834 15.4233C4.49168 14.0933 3.72168 12.7633 3.16168 11.445C2.61334 10.115 2.33334 8.84333 2.33334 7.63C2.33334 6.83667 2.47334 6.07833 2.75334 5.37833C3.03334 4.66667 3.47668 4.01333 4.09501 3.43C4.84168 2.695 5.65834 2.33333 6.52168 2.33333C6.84834 2.33333 7.17501 2.40333 7.46668 2.54333C7.77001 2.68333 8.03834 2.89333 8.24834 3.19667L10.955 7.01167C11.165 7.30333 11.3167 7.57167 11.4217 7.82833C11.5267 8.07333 11.585 8.31833 11.585 8.54C11.585 8.82 11.5033 9.1 11.34 9.36833C11.1883 9.63666 10.9667 9.91667 10.6867 10.1967L9.80001 11.1183C9.67168 11.2467 9.61334 11.3983 9.61334 11.585C9.61334 11.6783 9.62501 11.76 9.64834 11.8533C9.68334 11.9467 9.71834 12.0167 9.74168 12.0867C9.95168 12.4717 10.3133 12.9733 10.8267 13.58C11.3517 14.1867 11.9117 14.805 12.5183 15.4233C12.635 15.54 12.7633 15.6567 12.88 15.7733C13.3467 16.2283 13.3583 16.975 12.8917 17.4417Z" fill="#4F24FF"/>
<path d="M25.6317 21.385C25.6317 21.7117 25.5733 22.05 25.4567 22.3767C25.4217 22.47 25.3867 22.5633 25.34 22.6567C25.1417 23.0767 24.885 23.4733 24.5467 23.8467C23.975 24.4767 23.345 24.9317 22.6333 25.2233C22.6217 25.2233 22.61 25.235 22.5983 25.235C21.91 25.515 21.1633 25.6667 20.3583 25.6667C19.1683 25.6667 17.8967 25.3867 16.555 24.815C15.2133 24.2433 13.8717 23.4733 12.5417 22.505C12.0867 22.1667 11.6317 21.8283 11.2 21.4667L15.015 17.6517C15.3417 17.8967 15.6333 18.0833 15.8783 18.2117C15.9367 18.235 16.0067 18.27 16.0883 18.305C16.1817 18.34 16.275 18.3517 16.38 18.3517C16.5783 18.3517 16.73 18.2817 16.8583 18.1533L17.745 17.2783C18.0367 16.9867 18.3167 16.765 18.585 16.625C18.8533 16.4617 19.1217 16.38 19.4133 16.38C19.635 16.38 19.8683 16.4267 20.125 16.5317C20.3817 16.6367 20.65 16.7883 20.9417 16.9867L24.8033 19.7283C25.1067 19.9383 25.3167 20.1833 25.445 20.475C25.5617 20.7667 25.6317 21.0583 25.6317 21.385Z" fill="#4F24FF"/>
</svg>
