<svg width="51" height="51" viewBox="0 0 51 51" fill="none" xmlns="http://www.w3.org/2000/svg">
<path d="M46.75 22.8438H4.25C3.37875 22.8438 2.65625 22.1212 2.65625 21.25C2.65625 20.3788 3.37875 19.6562 4.25 19.6562H46.75C47.6213 19.6562 48.3438 20.3788 48.3438 21.25C48.3438 22.1212 47.6213 22.8438 46.75 22.8438Z" fill="white"/>
<path d="M24.5445 45.1562H13.6858C5.22827 45.1562 2.63574 42.6063 2.63574 34.2338V16.7663C2.63574 10.0725 4.05947 6.35375 11.6457 5.9075C12.2832 5.88625 12.9633 5.86499 13.6858 5.86499H37.2945C45.752 5.86499 48.3445 8.41499 48.3445 16.7875V26.1587C48.3445 27.03 47.622 27.7525 46.7508 27.7525C45.8795 27.7525 45.157 27.03 45.157 26.1587V16.7875C45.157 10.2212 43.9882 9.05249 37.2945 9.05249H13.6858C13.0058 9.05249 12.3895 9.07375 11.7945 9.095C7.18324 9.37125 5.82324 10.4125 5.82324 16.7875V34.255C5.82324 40.8212 6.99202 41.99 13.6858 41.99H24.5445C25.4157 41.99 26.1382 42.7125 26.1382 43.5837C26.1382 44.455 25.437 45.1562 24.5445 45.1562Z" fill="white"/>
<path d="M21.25 35.5938H12.75C11.8788 35.5938 11.1562 34.8712 11.1562 34C11.1562 33.1288 11.8788 32.4062 12.75 32.4062H21.25C22.1213 32.4062 22.8438 33.1288 22.8438 34C22.8438 34.8712 22.1213 35.5938 21.25 35.5938Z" fill="white"/>
<path d="M38.25 48.3438C34.7225 48.3438 31.4075 46.4738 29.6225 43.435C28.6663 41.905 28.1562 40.0988 28.1562 38.25C28.1562 32.6825 32.6825 28.1562 38.25 28.1562C43.8175 28.1562 48.3438 32.6825 48.3438 38.25C48.3438 40.0988 47.8337 41.905 46.8775 43.4562C45.0925 46.4737 41.7775 48.3438 38.25 48.3438ZM38.25 31.3438C34.4462 31.3438 31.3438 34.4462 31.3438 38.25C31.3438 39.5037 31.6837 40.7362 32.3424 41.7987C33.5749 43.8812 35.8488 45.1562 38.25 45.1562C40.6512 45.1562 42.9251 43.8812 44.1576 41.82C44.8163 40.7362 45.1562 39.525 45.1562 38.25C45.1562 34.4462 42.0538 31.3438 38.25 31.3438Z" fill="white"/>
<path d="M37.0389 41.9474C36.6352 41.9474 36.2315 41.7987 35.9127 41.4799L33.8089 39.3762C33.1926 38.7599 33.1926 37.7399 33.8089 37.1237C34.4251 36.5074 35.4451 36.5074 36.0614 37.1237L37.0815 38.1437L40.4814 34.9987C41.1189 34.4037 42.1389 34.4462 42.7339 35.0837C43.3289 35.7212 43.2864 36.7412 42.6489 37.3362L38.1227 41.5224C37.8039 41.7987 37.4214 41.9474 37.0389 41.9474Z" fill="white"/>
</svg>
