<svg width="64" height="64" viewBox="0 0 64 64" fill="none" xmlns="http://www.w3.org/2000/svg">
<path opacity="0.4" d="M48 54.6667H45.3333V54.0001C45.3333 51.0667 42.9333 48.6667 40 48.6667H34V42.5601C33.3333 42.6401 32.6667 42.6667 32 42.6667C31.3333 42.6667 30.6667 42.6401 30 42.5601V48.6667H24C21.0667 48.6667 18.6667 51.0667 18.6667 54.0001V54.6667H16C14.9067 54.6667 14 55.5734 14 56.6667C14 57.7601 14.9067 58.6667 16 58.6667H48C49.0933 58.6667 50 57.7601 50 56.6667C50 55.5734 49.0933 54.6667 48 54.6667Z" fill="#D0C4FF"/>
<path opacity="0.4" d="M14.72 31.0399C12.96 30.3733 11.4133 29.2799 10.1866 28.0533C7.70662 25.3066 6.07996 22.0266 6.07996 18.1866C6.07996 14.3466 9.09329 11.3333 12.9333 11.3333H14.4266C13.7333 12.7466 13.3333 14.3199 13.3333 15.9999V23.9999C13.3333 26.5066 13.8133 28.8799 14.72 31.0399Z" fill="#D0C4FF"/>
<path opacity="0.4" d="M57.92 18.1866C57.92 22.0266 56.2934 25.3066 53.8134 28.0533C52.5867 29.2799 51.04 30.3733 49.28 31.0399C50.1867 28.8799 50.6667 26.5066 50.6667 23.9999V15.9999C50.6667 14.3199 50.2667 12.7466 49.5734 11.3333H51.0667C54.9067 11.3333 57.92 14.3466 57.92 18.1866Z" fill="#D0C4FF"/>
<path d="M40 5.33325H24C18.1067 5.33325 13.3334 10.1066 13.3334 15.9999V23.9999C13.3334 34.3199 21.68 42.6666 32 42.6666C42.32 42.6666 50.6667 34.3199 50.6667 23.9999V15.9999C50.6667 10.1066 45.8934 5.33325 40 5.33325ZM39.5734 22.5333L37.92 24.5599C37.6534 24.8533 37.4667 25.4399 37.4934 25.8399L37.6534 28.4533C37.76 30.0533 36.6134 30.8799 35.12 30.2932L32.6934 29.3333C32.32 29.1999 31.68 29.1999 31.3067 29.3333L28.88 30.2932C27.3867 30.8799 26.24 30.0533 26.3467 28.4533L26.5067 25.8399C26.5334 25.4399 26.3467 24.8533 26.08 24.5599L24.4267 22.5333C23.3867 21.3066 23.84 19.9466 25.3867 19.5466L27.92 18.9066C28.32 18.7999 28.8 18.4266 29.0134 18.0799L30.4267 15.8933C31.3067 14.5333 32.6934 14.5333 33.5734 15.8933L34.9867 18.0799C35.2 18.4266 35.68 18.7999 36.08 18.9066L38.6134 19.5466C40.16 19.9466 40.6134 21.3066 39.5734 22.5333Z" fill="#D0C4FF"/>
<path opacity="0.4" d="M39.5733 22.5333L37.92 24.56C37.6533 24.8533 37.4666 25.44 37.4933 25.84L37.6533 28.4533C37.76 30.0533 36.6133 30.88 35.12 30.2933L32.6933 29.3333C32.32 29.2 31.68 29.2 31.3066 29.3333L28.88 30.2933C27.3866 30.88 26.24 30.0533 26.3466 28.4533L26.5066 25.84C26.5333 25.44 26.3466 24.8533 26.08 24.56L24.4266 22.5333C23.3866 21.3066 23.84 19.9466 25.3866 19.5466L27.92 18.9066C28.32 18.8 28.8 18.4266 29.0133 18.08L30.4266 15.8933C31.3066 14.5333 32.6933 14.5333 33.5733 15.8933L34.9866 18.08C35.2 18.4266 35.68 18.8 36.08 18.9066L38.6133 19.5466C40.16 19.9466 40.6133 21.3066 39.5733 22.5333Z" fill="#D0C4FF"/>
</svg>
