<svg width="64" height="64" viewBox="0 0 64 64" fill="none" xmlns="http://www.w3.org/2000/svg">
<path opacity="0.4" d="M43.1734 5.33325H20.8267C11.12 5.33325 5.33337 11.1199 5.33337 20.8266V43.1466C5.33337 52.8799 11.12 58.6666 20.8267 58.6666H43.1467C52.8534 58.6666 58.64 52.8799 58.64 43.1733V20.8266C58.6667 11.1199 52.88 5.33325 43.1734 5.33325Z" fill="#D0C4FF"/>
<path d="M38.0267 32L34.0001 30.5867V21.5467H34.96C37.12 21.5467 38.88 23.44 38.88 25.76C38.88 26.8533 39.7867 27.76 40.88 27.76C41.9734 27.76 42.88 26.8533 42.88 25.76C42.88 21.2267 39.3334 17.5467 34.96 17.5467H34.0001V16C34.0001 14.9067 33.0934 14 32.0001 14C30.9067 14 30.0001 14.9067 30.0001 16V17.5467H28.2667C24.3201 17.5467 21.0934 20.88 21.0934 24.96C21.0934 29.7333 23.8667 31.2533 25.9734 32L30.0001 33.4133V42.4267H29.0401C26.8801 42.4267 25.1201 40.5333 25.1201 38.2133C25.1201 37.12 24.2134 36.2133 23.1201 36.2133C22.0267 36.2133 21.1201 37.12 21.1201 38.2133C21.1201 42.7467 24.6667 46.4267 29.0401 46.4267H30.0001V48C30.0001 49.0933 30.9067 50 32.0001 50C33.0934 50 34.0001 49.0933 34.0001 48V46.4533H35.7334C39.68 46.4533 42.9067 43.12 42.9067 39.04C42.8801 34.24 40.1067 32.72 38.0267 32ZM27.3067 28.24C25.9467 27.76 25.1201 27.3067 25.1201 24.9867C25.1201 23.0933 26.5334 21.5733 28.2934 21.5733H30.0267V29.2L27.3067 28.24ZM35.7334 42.4533H34.0001V34.8267L36.6934 35.76C38.0534 36.24 38.88 36.6933 38.88 39.0133C38.88 40.9067 37.4667 42.4533 35.7334 42.4533Z" fill="#D0C4FF"/>
</svg>
