<svg width="29" height="29" viewBox="0 0 29 29" fill="none" xmlns="http://www.w3.org/2000/svg">
<path d="M25.9788 13.1709V4.95419C25.9788 3.14169 25.2055 2.41669 23.2843 2.41669H18.4026C16.4813 2.41669 15.708 3.14169 15.708 4.95419V13.1709C15.708 14.9834 16.4813 15.7084 18.4026 15.7084H23.2843C25.2055 15.7084 25.9788 14.9834 25.9788 13.1709Z" fill="white"/>
<path d="M13.2913 15.8292V24.0458C13.2913 25.8583 12.518 26.5833 10.5968 26.5833H5.71509C3.79384 26.5833 3.02051 25.8583 3.02051 24.0458V15.8292C3.02051 14.0167 3.79384 13.2917 5.71509 13.2917H10.5968C12.518 13.2917 13.2913 14.0167 13.2913 15.8292Z" fill="white"/>
<path d="M25.9788 24.0458V20.6625C25.9788 18.85 25.2055 18.125 23.2843 18.125H18.4026C16.4813 18.125 15.708 18.85 15.708 20.6625V24.0458C15.708 25.8583 16.4813 26.5833 18.4026 26.5833H23.2843C25.2055 26.5833 25.9788 25.8583 25.9788 24.0458Z" fill="white"/>
<path d="M13.2913 8.33752V4.95419C13.2913 3.14169 12.518 2.41669 10.5968 2.41669H5.71509C3.79384 2.41669 3.02051 3.14169 3.02051 4.95419V8.33752C3.02051 10.15 3.79384 10.875 5.71509 10.875H10.5968C12.518 10.875 13.2913 10.15 13.2913 8.33752Z" fill="white"/>
</svg>
