<svg width="60" height="60" viewBox="0 0 60 60" fill="none" xmlns="http://www.w3.org/2000/svg">
<path d="M8.67408 11.0693C9.19957 4.85606 14.396 0.0805664 20.6314 0.0805664H47.3017C53.9291 0.0805664 59.3017 5.45315 59.3017 12.0806V41.4995C59.3017 48.1269 53.9291 53.4995 47.3017 53.4995H18.1432C11.1169 53.4995 5.59375 47.4895 6.18591 40.4882L8.67408 11.0693Z" fill="#FF6F1D"/>
<path d="M4.10202 13.4759C4.62032 7.25636 9.81951 2.47241 16.0606 2.47241H44.9097C51.5372 2.47241 56.9097 7.845 56.9097 14.4724V47.0805C56.9097 53.7079 51.5372 59.0805 44.9097 59.0805H13.3432C6.32274 59.0805 0.801662 53.0802 1.38468 46.084L4.10202 13.4759Z" fill="white"/>
<path opacity="0.4" d="M37.7566 21.7531H37.2066L32.5591 17.1056C32.1879 16.7343 31.5829 16.7343 31.1979 17.1056C30.8266 17.4768 30.8266 18.0818 31.1979 18.4668L34.4841 21.7531H21.1191L24.4054 18.4668C24.7766 18.0956 24.7766 17.4906 24.4054 17.1056C24.0341 16.7343 23.4291 16.7343 23.0441 17.1056L18.4104 21.7531H17.8604C16.6229 21.7531 14.0516 21.7531 14.0516 25.2731C14.0516 26.6068 14.3266 27.4868 14.9041 28.0643C15.2341 28.4081 15.6329 28.5868 16.0591 28.6831C16.4579 28.7793 16.8841 28.7931 17.2966 28.7931H38.3066C38.7329 28.7931 39.1316 28.7656 39.5166 28.6831C40.6716 28.4081 41.5516 27.5831 41.5516 25.2731C41.5516 21.7531 38.9804 21.7531 37.7566 21.7531Z" fill="#FF6F1D"/>
<path d="M38.3204 28.7931H17.2966C16.8841 28.7931 16.4579 28.7794 16.0591 28.6831L17.7916 39.2431C18.1766 41.6081 19.2079 44.3306 23.7866 44.3306H31.5004C36.1341 44.3306 36.9591 42.0069 37.4541 39.4081L39.5304 28.6831C39.1454 28.7656 38.7329 28.7931 38.3204 28.7931ZM25.8904 37.6756C25.8904 38.2119 25.4641 38.6381 24.9279 38.6381C24.3916 38.6381 23.9654 38.2119 23.9654 37.6756V33.1381C23.9654 32.6019 24.3916 32.1756 24.9279 32.1756C25.4641 32.1756 25.8904 32.6019 25.8904 33.1381V37.6756ZM31.7754 37.6756C31.7754 38.2119 31.3491 38.6381 30.8129 38.6381C30.2766 38.6381 29.8504 38.2119 29.8504 37.6756V33.1381C29.8504 32.6019 30.2766 32.1756 30.8129 32.1756C31.3491 32.1756 31.7754 32.6019 31.7754 33.1381V37.6756Z" fill="#FF6F1D"/>
</svg>
