<svg width="55" height="55" viewBox="0 0 55 55" fill="none" xmlns="http://www.w3.org/2000/svg">
<rect x="5.68164" y="4.02295" width="49.3192" height="49.3192" rx="9" fill="white"/>
<rect y="11.5935" width="44.6159" height="44.6159" rx="9" transform="rotate(-14.4992 0 11.5935)" fill="#4F24FF"/>
<path d="M40.2379 17.5775V33.5341C40.2379 34.8358 39.1777 36.0302 37.8759 36.1913L37.4599 36.2449C35.259 36.5402 32.1589 37.4528 29.6628 38.4995C28.7905 38.8619 27.8242 38.2043 27.8242 37.2515V18.584C27.8242 18.0874 28.106 17.6311 28.5489 17.3896C31.0048 16.061 34.7222 14.88 37.2452 14.6653H37.3257C38.9361 14.6653 40.2379 15.967 40.2379 17.5775Z" fill="white"/>
<path d="M25.0872 17.3896C22.6313 16.061 18.9139 14.88 16.3909 14.6653H16.2969C14.6865 14.6653 13.3848 15.967 13.3848 17.5775V33.5341C13.3848 34.8358 14.445 36.0302 15.7467 36.1913L16.1627 36.2449C18.3637 36.5402 21.4637 37.4528 23.9599 38.4995C24.8322 38.8619 25.7984 38.2043 25.7984 37.2515V18.584C25.7984 18.074 25.53 17.6311 25.0872 17.3896ZM17.4242 21.4559H20.4438C20.994 21.4559 21.4503 21.9122 21.4503 22.4624C21.4503 23.0261 20.994 23.4689 20.4438 23.4689H17.4242C16.874 23.4689 16.4177 23.0261 16.4177 22.4624C16.4177 21.9122 16.874 21.4559 17.4242 21.4559ZM21.4503 27.495H17.4242C16.874 27.495 16.4177 27.0521 16.4177 26.4885C16.4177 25.9382 16.874 25.482 17.4242 25.482H21.4503C22.0005 25.482 22.4568 25.9382 22.4568 26.4885C22.4568 27.0521 22.0005 27.495 21.4503 27.495Z" fill="white"/>
</svg>
