<svg width="24" height="24" viewBox="0 0 24 24" fill="none" xmlns="http://www.w3.org/2000/svg">
<path d="M3.5 11V14C3.5 17.771 3.5 19.657 4.672 20.828C5.843 22 7.729 22 11.5 22H12.5C16.271 22 18.157 22 19.328 20.828C20.5 19.657 20.5 17.771 20.5 14V11" stroke="#4F24FF" stroke-width="1.5"/>
<path d="M9.50001 2H14.5L15.152 8.517C15.195 8.95677 15.1454 9.40065 15.0066 9.82013C14.8677 10.2396 14.6426 10.6254 14.3457 10.9526C14.0489 11.2799 13.6868 11.5415 13.2828 11.7204C12.8788 11.8994 12.4419 11.9919 12 11.9919C11.5581 11.9919 11.1212 11.8994 10.7172 11.7204C10.3132 11.5415 9.95114 11.2799 9.65428 10.9526C9.35741 10.6254 9.13231 10.2396 8.99346 9.82013C8.8546 9.40065 8.80505 8.95677 8.84801 8.517L9.50001 2Z" stroke="#4F24FF" stroke-width="1.5"/>
<path d="M3.33002 5.351C3.50802 4.461 3.59702 4.016 3.77802 3.655C3.96662 3.27904 4.23217 2.94694 4.55743 2.68025C4.88269 2.41356 5.26039 2.21826 5.66602 2.107C6.05602 2 6.51002 2 7.41802 2H9.50002L8.77502 9.245C8.73676 9.65963 8.61428 10.0621 8.41508 10.4277C8.21588 10.7934 7.94414 11.1145 7.61651 11.3715C7.28889 11.6285 6.91226 11.8159 6.50968 11.9223C6.10711 12.0287 5.68706 12.0518 5.27525 11.9902C4.86344 11.9285 4.46854 11.7835 4.11471 11.564C3.76089 11.3445 3.45559 11.0551 3.21751 10.7135C2.97943 10.3718 2.81357 9.98523 2.73009 9.5773C2.64662 9.16936 2.64727 8.74868 2.73202 8.341L3.33002 5.351ZM20.67 5.351C20.492 4.461 20.403 4.016 20.222 3.655C20.0334 3.27904 19.7679 2.94694 19.4426 2.68025C19.1174 2.41356 18.7397 2.21826 18.334 2.107C17.944 2 17.49 2 16.582 2H14.5L15.225 9.245C15.2633 9.65963 15.3858 10.0621 15.585 10.4277C15.7842 10.7934 16.0559 11.1145 16.3835 11.3715C16.7112 11.6285 17.0878 11.8159 17.4904 11.9223C17.8929 12.0287 18.313 12.0518 18.7248 11.9902C19.1366 11.9285 19.5315 11.7835 19.8853 11.564C20.2392 11.3445 20.5445 11.0551 20.7825 10.7135C21.0206 10.3718 21.1865 9.98523 21.27 9.5773C21.3534 9.16936 21.3528 8.74868 21.268 8.341L20.67 5.351Z" stroke="#4F24FF" stroke-width="1.5"/>
<path d="M9.5 21.5V18.5C9.5 17.565 9.5 17.098 9.701 16.75C9.83265 16.522 10.022 16.3326 10.25 16.201C10.598 16 11.065 16 12 16C12.935 16 13.402 16 13.75 16.201C13.978 16.3326 14.1674 16.522 14.299 16.75C14.5 17.098 14.5 17.565 14.5 18.5V21.5" stroke="#4F24FF" stroke-width="1.5" stroke-linecap="round"/>
</svg>
