<svg width="64" height="64" viewBox="0 0 64 64" fill="none" xmlns="http://www.w3.org/2000/svg">
<circle cx="32" cy="32" r="32" fill="#4F24FF"/>
<path d="M42.7754 27.5625C41.4629 21.7875 36.4254 19.1875 32.0004 19.1875C32.0004 19.1875 32.0004 19.1875 31.9879 19.1875C27.5754 19.1875 22.5254 21.775 21.2129 27.55C19.7504 34 23.7004 39.4625 27.2754 42.9C28.6004 44.175 30.3004 44.8125 32.0004 44.8125C33.7004 44.8125 35.4004 44.175 36.7129 42.9C40.2879 39.4625 44.2379 34.0125 42.7754 27.5625ZM32.0004 33.825C29.8254 33.825 28.0629 32.0625 28.0629 29.8875C28.0629 27.7125 29.8254 25.95 32.0004 25.95C34.1754 25.95 35.9379 27.7125 35.9379 29.8875C35.9379 32.0625 34.1754 33.825 32.0004 33.825Z" fill="white"/>
</svg>
