<svg width="49" height="91" viewBox="0 0 49 91" fill="none" xmlns="http://www.w3.org/2000/svg">
<circle cx="3.27758" cy="3.27758" r="3.27758" fill="#D9D9D9"/>
<circle cx="3.27758" cy="17.2073" r="3.27758" fill="#D9D9D9"/>
<circle cx="3.27758" cy="31.137" r="3.27758" fill="#D9D9D9"/>
<circle cx="3.27758" cy="45.0669" r="3.27758" fill="#D9D9D9"/>
<circle cx="3.27758" cy="58.9966" r="3.27758" fill="#D9D9D9"/>
<circle cx="3.27758" cy="72.9263" r="3.27758" fill="#D9D9D9"/>
<circle cx="3.27758" cy="86.8559" r="3.27758" fill="#D9D9D9"/>
<circle cx="17.2073" cy="3.27758" r="3.27758" fill="#D9D9D9"/>
<circle cx="17.2073" cy="17.2073" r="3.27758" fill="#D9D9D9"/>
<circle cx="17.2073" cy="31.137" r="3.27758" fill="#D9D9D9"/>
<circle cx="17.2073" cy="45.0669" r="3.27758" fill="#D9D9D9"/>
<circle cx="17.2073" cy="58.9966" r="3.27758" fill="#D9D9D9"/>
<circle cx="17.2073" cy="72.9263" r="3.27758" fill="#D9D9D9"/>
<circle cx="17.2073" cy="86.8559" r="3.27758" fill="#D9D9D9"/>
<circle cx="31.1371" cy="3.27758" r="3.27758" fill="#D9D9D9"/>
<circle cx="31.1371" cy="17.2073" r="3.27758" fill="#D9D9D9"/>
<circle cx="31.1371" cy="31.137" r="3.27758" fill="#D9D9D9"/>
<circle cx="31.1371" cy="45.0669" r="3.27758" fill="#D9D9D9"/>
<circle cx="31.1371" cy="58.9966" r="3.27758" fill="#D9D9D9"/>
<circle cx="31.1371" cy="72.9263" r="3.27758" fill="#D9D9D9"/>
<circle cx="31.1371" cy="86.8559" r="3.27758" fill="#D9D9D9"/>
<circle cx="45.0668" cy="3.27758" r="3.27758" fill="#D9D9D9"/>
<circle cx="45.0668" cy="17.2073" r="3.27758" fill="#D9D9D9"/>
<circle cx="45.0668" cy="31.137" r="3.27758" fill="#D9D9D9"/>
<circle cx="45.0668" cy="45.0669" r="3.27758" fill="#D9D9D9"/>
<circle cx="45.0668" cy="58.9966" r="3.27758" fill="#D9D9D9"/>
<circle cx="45.0668" cy="72.9263" r="3.27758" fill="#D9D9D9"/>
<circle cx="45.0668" cy="86.8559" r="3.27758" fill="#D9D9D9"/>
</svg>
