<svg width="80" height="80" viewBox="0 0 80 80" fill="none" xmlns="http://www.w3.org/2000/svg">
<path d="M9.16667 62.1666C7.8 62.1666 6.66667 61.0333 6.66667 59.6666V40.6666C6.5 31.6333 9.86667 23.0999 16.1333 16.6999C22.4 10.3333 30.8 6.83325 39.8333 6.83325C58.3 6.83325 73.3333 21.8666 73.3333 40.3333V59.3333C73.3333 60.6999 72.2 61.8333 70.8333 61.8333C69.4667 61.8333 68.3333 60.6999 68.3333 59.3333V40.3333C68.3333 24.6333 55.5667 11.8333 39.8333 11.8333C32.1333 11.8333 25 14.7999 19.7 20.1999C14.3667 25.6333 11.5333 32.8666 11.6667 40.5999V59.6333C11.6667 61.0333 10.5667 62.1666 9.16667 62.1666Z" fill="white"/>
<path d="M19.8 41.5H19.3666C12.3666 41.5 6.66663 47.2 6.66663 54.2V60.4667C6.66663 67.4667 12.3666 73.1667 19.3666 73.1667H19.8C26.8 73.1667 32.5 67.4667 32.5 60.4667V54.2C32.5 47.2 26.8 41.5 19.8 41.5Z" fill="white"/>
<path d="M60.6333 41.5H60.2C53.2 41.5 47.5 47.2 47.5 54.2V60.4667C47.5 67.4667 53.2 73.1667 60.2 73.1667H60.6333C67.6333 73.1667 73.3333 67.4667 73.3333 60.4667V54.2C73.3333 47.2 67.6333 41.5 60.6333 41.5Z" fill="white"/>
</svg>
