<svg width="54" height="54" viewBox="0 0 54 54" fill="none" xmlns="http://www.w3.org/2000/svg">
<path d="M37.0775 21.5H33.5V10.25C33.5 9.0125 32.4875 8 31.25 8H22.25C21.0125 8 20 9.0125 20 10.25V21.5H16.4225C14.42 21.5 13.4075 23.93 14.825 25.3475L25.1525 35.675C26.03 36.5525 27.4475 36.5525 28.325 35.675L38.6525 25.3475C40.07 23.93 39.08 21.5 37.0775 21.5ZM11 44C11 45.2375 12.0125 46.25 13.25 46.25H40.25C41.4875 46.25 42.5 45.2375 42.5 44C42.5 42.7625 41.4875 41.75 40.25 41.75H13.25C12.0125 41.75 11 42.7625 11 44Z" fill="white"/>
</svg>
