<svg width="18" height="19" viewBox="0 0 18 19" fill="none" xmlns="http://www.w3.org/2000/svg">
<path d="M1.71777 6.33498V13.6325C1.71777 15.0575 2.73027 15.6425 3.96027 14.9375L5.72277 13.9325C6.10527 13.715 6.74277 13.6925 7.14027 13.895L11.0778 15.8675C11.4753 16.0625 12.1128 16.0475 12.4953 15.83L15.7428 13.97C16.1553 13.73 16.5003 13.145 16.5003 12.665V5.36748C16.5003 3.94248 15.4878 3.35748 14.2578 4.06248L12.4953 5.06748C12.1128 5.28498 11.4753 5.30748 11.0778 5.10498L7.14027 3.13998C6.74277 2.94498 6.10527 2.95998 5.72277 3.17748L2.47527 5.03748C2.05527 5.27748 1.71777 5.86248 1.71777 6.33498Z" stroke="#4F24FF" stroke-width="1.5" stroke-linecap="round" stroke-linejoin="round"/>
<path d="M6.41992 3.5V13.25" stroke="#4F24FF" stroke-width="1.5" stroke-linecap="round" stroke-linejoin="round"/>
<path d="M11.7979 5.46509V15.5001" stroke="#4F24FF" stroke-width="1.5" stroke-linecap="round" stroke-linejoin="round"/>
</svg>
