<svg width="28" height="28" viewBox="0 0 28 28" fill="none" xmlns="http://www.w3.org/2000/svg">
<path d="M13.9997 18.1731L9.87084 14.0454L10.6968 13.2054L13.4163 15.9249V5.83325H14.583V15.9249L17.3013 13.2066L18.1285 14.0454L13.9997 18.1731ZM7.71834 22.1666C7.1809 22.1666 6.73251 21.9869 6.37317 21.6276C6.01384 21.2683 5.83379 20.8195 5.83301 20.2813V17.4544H6.99967V20.2813C6.99967 20.4609 7.07434 20.6258 7.22367 20.7759C7.37301 20.926 7.53751 21.0007 7.71717 20.9999H20.2822C20.4611 20.9999 20.6256 20.9253 20.7757 20.7759C20.9258 20.6266 21.0005 20.4617 20.9997 20.2813V17.4544H22.1663V20.2813C22.1663 20.8187 21.9867 21.2671 21.6273 21.6264C21.268 21.9858 20.8192 22.1658 20.281 22.1666H7.71834Z" fill="#FF6F1D"/>
</svg>
