<svg width="24" height="25" viewBox="0 0 24 25" fill="none" xmlns="http://www.w3.org/2000/svg">
<path d="M11 16.65V19.35C11 21.6 10.1 22.5 7.85 22.5H5.15C2.9 22.5 2 21.6 2 19.35V16.65C2 14.4 2.9 13.5 5.15 13.5H7.85C10.1 13.5 11 14.4 11 16.65Z" fill="white"/>
<path d="M16.48 2.5H8.52C5.47 2.5 3 4.97 3 8.02V11C3 11.55 3.45 12 4 12H8.5C10.71 12 12.5 13.79 12.5 16V20.5C12.5 21.05 12.95 21.5 13.5 21.5H16.48C19.93 21.5 22 19.44 22 15.98V8.02C22 4.97 19.53 2.5 16.48 2.5ZM18.76 10.49C18.76 10.9 18.42 11.24 18.01 11.24C17.6 11.24 17.26 10.9 17.26 10.49V8.29L13.53 12.03C13.38 12.18 13.19 12.25 13 12.25C12.81 12.25 12.62 12.18 12.47 12.03C12.18 11.74 12.18 11.26 12.47 10.97L16.2 7.22H14C13.58 7.22 13.25 6.89 13.25 6.47C13.25 6.06 13.58 5.72 14 5.72H18.01C18.1 5.72 18.19 5.75 18.27 5.78C18.3 5.79 18.32 5.8 18.34 5.81C18.4 5.84 18.45 5.87 18.5 5.92C18.52 5.93 18.54 5.95 18.56 5.97C18.61 6.03 18.65 6.09 18.69 6.16C18.69 6.17 18.7 6.18 18.7 6.19C18.74 6.27 18.75 6.36 18.75 6.45C18.76 6.46 18.76 6.46 18.76 6.47V10.49Z" fill="white"/>
</svg>
