<svg width="28" height="28" viewBox="0 0 28 28" fill="none" xmlns="http://www.w3.org/2000/svg">
<path d="M13.9997 26.5766C13.1947 26.5766 12.4364 26.1683 11.8997 25.4566L10.1497 23.1233C10.1147 23.0766 9.97466 23.0066 9.90466 23.0066H9.33301C4.46801 23.0066 1.45801 21.6883 1.45801 15.1316V9.29828C1.45801 4.14161 4.17634 1.42328 9.33301 1.42328H18.6663C23.823 1.42328 26.5413 4.14161 26.5413 9.29828V15.1316C26.5413 15.6099 26.1447 16.0066 25.6663 16.0066C25.188 16.0066 24.7913 15.6099 24.7913 15.1316V9.29828C24.7913 5.12161 22.843 3.17328 18.6663 3.17328H9.33301C5.15634 3.17328 3.20801 5.12161 3.20801 9.29828V15.1316C3.20801 20.4049 5.01634 21.2566 9.33301 21.2566H9.91634C10.5113 21.2566 11.1997 21.5949 11.5497 22.0733L13.2997 24.4066C13.708 24.9433 14.2913 24.9433 14.6997 24.4066C14.9913 24.0216 15.5397 23.9399 15.9247 24.2316C16.3097 24.5233 16.3913 25.0716 16.0997 25.4566C15.563 26.1683 14.8047 26.5766 13.9997 26.5766Z" fill="#FF6F1D"/>
<path d="M13.9997 13.965C13.3463 13.965 12.833 13.44 12.833 12.7983C12.833 12.1567 13.358 11.6317 13.9997 11.6317C14.6413 11.6317 15.1663 12.1567 15.1663 12.7983C15.1663 13.44 14.653 13.965 13.9997 13.965Z" fill="#FF6F1D"/>
<path d="M18.6667 13.965C18.0133 13.965 17.5 13.44 17.5 12.7983C17.5 12.1567 18.025 11.6317 18.6667 11.6317C19.3083 11.6317 19.8333 12.1567 19.8333 12.7983C19.8333 13.44 19.32 13.965 18.6667 13.965Z" fill="#FF6F1D"/>
<path d="M9.33366 13.965C8.68033 13.965 8.16699 13.44 8.16699 12.7983C8.16699 12.1567 8.69199 11.6317 9.33366 11.6317C9.97533 11.6317 10.5003 12.1567 10.5003 12.7983C10.5003 13.44 9.98699 13.965 9.33366 13.965Z" fill="#FF6F1D"/>
<path d="M21.2333 25.8417C18.69 25.8417 16.625 23.7767 16.625 21.2333C16.625 18.69 18.69 16.625 21.2333 16.625C23.7767 16.625 25.8417 18.69 25.8417 21.2333C25.8417 23.7767 23.7767 25.8417 21.2333 25.8417ZM21.2333 18.375C19.6583 18.375 18.375 19.6583 18.375 21.2333C18.375 22.8083 19.6583 24.0917 21.2333 24.0917C22.8083 24.0917 24.0917 22.8083 24.0917 21.2333C24.0917 19.6583 22.8083 18.375 21.2333 18.375Z" fill="#FF6F1D"/>
<path d="M25.6667 26.5417C25.445 26.5417 25.2233 26.46 25.0483 26.285L23.8817 25.1183C23.5433 24.78 23.5433 24.22 23.8817 23.8817C24.22 23.5433 24.78 23.5433 25.1183 23.8817L26.285 25.0483C26.6233 25.3867 26.6233 25.9467 26.285 26.285C26.11 26.46 25.8883 26.5417 25.6667 26.5417Z" fill="#FF6F1D"/>
</svg>
