<svg width="24" height="25" viewBox="0 0 24 25" fill="none" xmlns="http://www.w3.org/2000/svg">
<path opacity="0.4" d="M21.6602 10.94L20.6802 15.12C19.8402 18.73 18.1802 20.19 15.0602 19.89C14.5602 19.85 14.0202 19.76 13.4402 19.62L11.7602 19.22C7.59018 18.23 6.30018 16.17 7.28018 11.99L8.26018 7.80001C8.46018 6.95001 8.70018 6.21001 9.00018 5.60001C10.1702 3.18001 12.1602 2.53001 15.5002 3.32001L17.1702 3.71001C21.3602 4.69001 22.6402 6.76001 21.6602 10.94Z" fill="#4F24FF"/>
<path d="M15.0603 19.89C14.4403 20.31 13.6603 20.66 12.7103 20.97L11.1303 21.49C7.16034 22.77 5.07034 21.7 3.78034 17.73L2.50034 13.78C1.22034 9.80998 2.28034 7.70998 6.25034 6.42998L7.83034 5.90998C8.24034 5.77998 8.63034 5.66998 9.00034 5.59998C8.70034 6.20998 8.46034 6.94998 8.26034 7.79998L7.28034 11.99C6.30034 16.17 7.59034 18.23 11.7603 19.22L13.4403 19.62C14.0203 19.76 14.5603 19.85 15.0603 19.89Z" fill="#4F24FF"/>
</svg>
