<svg width="24" height="25" viewBox="0 0 24 25" fill="none" xmlns="http://www.w3.org/2000/svg">
<path opacity="0.4" d="M19.11 7.96999L15.59 4.44999C12.43 1.29999 10.77 2.45999 8.77005 4.44999L3.11005 10.11C1.96005 11.26 1.33005 12 1.10005 12.82C1.10005 12.83 1.09005 12.83 1.09005 12.83C1.09005 12.84 1.09005 12.84 1.09005 12.84C1.09005 12.85 1.09005 12.85 1.09005 12.85V12.88C0.680048 14.34 1.76005 15.58 3.11005 16.93L6.64005 20.44C7.90005 21.71 8.92005 22.5 10.05 22.5C11.18 22.5 12.15 21.74 13.45 20.44L19.11 14.79C19.6 14.29 19.96 13.88 20.24 13.49C20.24 13.48 20.24 13.48 20.24 13.48C20.24 13.48 20.24 13.48 20.25 13.48C21.53 11.69 21.19 10.04 19.11 7.96999ZM19.15 10.42C19.58 11.15 18.9 12.05 18.07 11.87C17.76 11.8 17.46 11.74 17.15 11.68C17.13 11.68 17.11 11.67 17.08 11.67C16.38 11.54 15.67 11.43 14.95 11.34H14.91C14.19 11.25 13.46 11.18 12.73 11.14H12.65C12.01 11.1 11.36 11.08 10.72 11.08C9.94005 11.08 9.16005 11.12 8.39005 11.17C8.26005 11.18 8.14005 11.19 8.02005 11.2C7.44005 11.24 6.86005 11.3 6.29005 11.37C6.13005 11.39 5.98005 11.41 5.83005 11.43C5.25005 11.52 4.68005 11.61 4.11005 11.72C3.98005 11.75 3.86005 11.77 3.73005 11.79C3.68005 11.8 3.62005 11.81 3.57005 11.82C3.75005 11.62 3.96005 11.41 4.19005 11.18L9.84005 5.52999C11.66 3.72999 12.28 3.29999 14.52 5.52999L18.03 9.04999C18.57 9.57999 18.93 10.03 19.15 10.42Z" fill="#4F24FF"/>
<path d="M19.1503 10.42C19.5803 11.15 18.9003 12.05 18.0703 11.87C17.7603 11.8 17.4603 11.74 17.1503 11.68C17.1303 11.68 17.1103 11.67 17.0803 11.67C16.3803 11.54 15.6703 11.43 14.9503 11.34H14.9103C14.1903 11.25 13.4603 11.18 12.7303 11.14H12.6503C12.0103 11.1 11.3603 11.08 10.7203 11.08C9.94031 11.08 9.16031 11.12 8.39031 11.17C8.26031 11.18 8.14031 11.19 8.02031 11.2C7.44031 11.24 6.86031 11.3 6.29031 11.37C6.13031 11.39 5.98031 11.41 5.83031 11.43C5.25031 11.52 4.68031 11.61 4.11031 11.72C3.98031 11.75 3.86031 11.77 3.73031 11.79C3.68031 11.8 3.62031 11.81 3.57031 11.82C3.75031 11.62 3.96031 11.41 4.19031 11.18L9.84031 5.52999C11.6603 3.72999 12.2803 3.29999 14.5203 5.52999L18.0303 9.04999C18.5703 9.57999 18.9303 10.03 19.1503 10.42Z" fill="#4F24FF"/>
<path d="M20.9499 17.37C20.5699 16.9 20.2399 16.5 19.4999 16.5C18.7599 16.5 18.4299 16.9 18.0599 17.37C17.2599 18.36 16.8999 19.44 17.0299 20.48C17.1799 21.67 18.1999 22.5 19.4999 22.5C20.7999 22.5 21.8199 21.67 21.9699 20.47C22.0999 19.43 21.7499 18.36 20.9499 17.37Z" fill="#4F24FF"/>
</svg>
