<svg width="64" height="64" viewBox="0 0 64 64" fill="none" xmlns="http://www.w3.org/2000/svg">
<path opacity="0.4" d="M24 5.33325C17.0134 5.33325 11.3334 11.0133 11.3334 17.9999C11.3334 24.8533 16.6934 30.3999 23.68 30.6399C23.8934 30.6133 24.1067 30.6133 24.2667 30.6399C24.32 30.6399 24.3467 30.6399 24.4 30.6399C24.4267 30.6399 24.4267 30.6399 24.4534 30.6399C31.28 30.3999 36.64 24.8533 36.6667 17.9999C36.6667 11.0133 30.9867 5.33325 24 5.33325Z" fill="#D0C4FF"/>
<path d="M37.5467 37.7334C30.1067 32.7734 17.9734 32.7734 10.48 37.7334C7.09335 40.0001 5.22668 43.0668 5.22668 46.3468C5.22668 49.6268 7.09335 52.6668 10.4534 54.9068C14.1867 57.4134 19.0934 58.6668 24 58.6668C28.9067 58.6668 33.8134 57.4134 37.5467 54.9068C40.9067 52.6401 42.7734 49.6001 42.7734 46.2934C42.7467 43.0134 40.9067 39.9734 37.5467 37.7334Z" fill="#D0C4FF"/>
<path opacity="0.4" d="M53.3067 19.5733C53.7334 24.7466 50.0534 29.2799 44.96 29.8933C44.9334 29.8933 44.9334 29.8933 44.9067 29.8933H44.8267C44.6667 29.8933 44.5067 29.8933 44.3734 29.9466C41.7867 30.0799 39.4134 29.2533 37.6267 27.7333C40.3734 25.2799 41.9467 21.5999 41.6267 17.5999C41.44 15.4399 40.6934 13.4666 39.5734 11.7866C40.5867 11.2799 41.76 10.9599 42.96 10.8533C48.1867 10.3999 52.8534 14.2933 53.3067 19.5733Z" fill="#D0C4FF"/>
<path d="M58.64 44.24C58.4266 46.8267 56.7733 49.0667 54 50.5867C51.3333 52.0533 47.9733 52.7467 44.64 52.6667C46.56 50.9333 47.68 48.7733 47.8933 46.48C48.16 43.1733 46.5866 40 43.44 37.4667C41.6533 36.0533 39.5733 34.9333 37.3066 34.1067C43.2 32.4 50.6133 33.5467 55.1733 37.2267C57.6266 39.2 58.88 41.68 58.64 44.24Z" fill="#D0C4FF"/>
</svg>
