<svg width="24" height="24" viewBox="0 0 24 24" fill="none" xmlns="http://www.w3.org/2000/svg">
<path fill-rule="evenodd" clip-rule="evenodd" d="M10.7298 1.25L10.621 1.24989C10.1084 1.24913 9.65851 1.24845 9.25762 1.40612C8.90709 1.54399 8.59677 1.76765 8.35513 2.0566C8.07878 2.38706 7.93715 2.81409 7.77577 3.30063L7.74147 3.40388L7.45943 4.25H4H2C1.58579 4.25 1.25 4.58579 1.25 5C1.25 5.41421 1.58579 5.75 2 5.75H3.29282L3.89693 16.0199L3.89881 16.0517C3.95958 17.0849 4.0078 17.9049 4.09968 18.5652C4.19376 19.2413 4.34057 19.8113 4.63159 20.3287C5.10467 21.1697 5.8227 21.8468 6.6901 22.2696C7.22368 22.5298 7.80125 22.6429 8.48175 22.6971C9.14635 22.75 9.9677 22.75 11.0027 22.75H11.0346H12.9654H12.9973C14.0323 22.75 14.8537 22.75 15.5182 22.6971C16.1987 22.6429 16.7763 22.5298 17.3099 22.2696C18.1773 21.8468 18.8953 21.1697 19.3684 20.3287C19.6594 19.8113 19.8062 19.2413 19.9003 18.5652C19.9922 17.9049 20.0404 17.0851 20.1012 16.052V16.052L20.1012 16.0519L20.1031 16.0199L20.7072 5.75H22C22.4142 5.75 22.75 5.41421 22.75 5C22.75 4.58579 22.4142 4.25 22 4.25H20H16.5406L16.2585 3.40388L16.2242 3.30063C16.0629 2.81409 15.9212 2.38706 15.6449 2.0566C15.4032 1.76765 15.0929 1.54399 14.7424 1.40612C14.3415 1.24845 13.8916 1.24913 13.379 1.24989L13.2702 1.25H10.7298ZM15.9825 5.75C15.9941 5.75027 16.0057 5.75027 16.0173 5.75H19.2046L18.6057 15.9318C18.5426 17.0039 18.4973 17.7642 18.4146 18.3585C18.3332 18.9437 18.2226 19.3061 18.061 19.5933C17.7373 20.1688 17.2461 20.632 16.6526 20.9213C16.3564 21.0657 15.9881 21.1549 15.3991 21.2018C14.8011 21.2494 14.0394 21.25 12.9654 21.25H11.0346C9.96057 21.25 9.19893 21.2494 8.60087 21.2018C8.01191 21.1549 7.6436 21.0657 7.34742 20.9213C6.75394 20.632 6.26265 20.1688 5.93897 19.5933C5.77743 19.3061 5.66679 18.9437 5.58537 18.3585C5.50269 17.7642 5.45741 17.0039 5.39434 15.9318L4.79541 5.75H7.9827C7.99433 5.75027 8.00594 5.75027 8.01751 5.75H15.9825ZM14.9594 4.25L14.8355 3.87822C14.6186 3.2274 14.5633 3.10152 14.4942 3.01887C14.4137 2.92255 14.3102 2.848 14.1934 2.80204C14.0931 2.7626 13.9562 2.75 13.2702 2.75H10.7298C10.0438 2.75 9.90691 2.7626 9.80663 2.80204C9.68979 2.848 9.58635 2.92255 9.5058 3.01887C9.43668 3.10152 9.38144 3.2274 9.16449 3.87822L9.04057 4.25H14.9594ZM10.75 10C10.75 9.58579 10.4142 9.25 10 9.25C9.58579 9.25 9.25 9.58579 9.25 10V17C9.25 17.4142 9.58579 17.75 10 17.75C10.4142 17.75 10.75 17.4142 10.75 17V10ZM14 9.25C14.4142 9.25 14.75 9.58579 14.75 10V14C14.75 14.4142 14.4142 14.75 14 14.75C13.5858 14.75 13.25 14.4142 13.25 14V10C13.25 9.58579 13.5858 9.25 14 9.25Z" fill="#393939"/>
</svg>
