<svg width="24" height="25" viewBox="0 0 24 25" fill="none" xmlns="http://www.w3.org/2000/svg">
<path d="M15 2.5V12.5C15 13.6 14.1 14.5 13 14.5H2V8.12C2.73 8.99 3.85003 9.53 5.09003 9.5C6.10003 9.48 7.01 9.09 7.69 8.44C8 8.18 8.26002 7.84999 8.46002 7.48999C8.82002 6.87999 9.02 6.15997 9 5.40997C8.97 4.23997 8.45001 3.21 7.64001 2.5H15Z" stroke="#4F24FF" stroke-width="1.5" stroke-linecap="round" stroke-linejoin="round"/>
<path d="M22 14.5V17.5C22 19.16 20.66 20.5 19 20.5H18C18 19.4 17.1 18.5 16 18.5C14.9 18.5 14 19.4 14 20.5H10C10 19.4 9.1 18.5 8 18.5C6.9 18.5 6 19.4 6 20.5H5C3.34 20.5 2 19.16 2 17.5V14.5H13C14.1 14.5 15 13.6 15 12.5V5.5H16.84C17.56 5.5 18.22 5.89001 18.58 6.51001L20.29 9.5H19C18.45 9.5 18 9.95 18 10.5V13.5C18 14.05 18.45 14.5 19 14.5H22Z" stroke="#4F24FF" stroke-width="1.5" stroke-linecap="round" stroke-linejoin="round"/>
<path d="M8 22.5C9.10457 22.5 10 21.6046 10 20.5C10 19.3954 9.10457 18.5 8 18.5C6.89543 18.5 6 19.3954 6 20.5C6 21.6046 6.89543 22.5 8 22.5Z" stroke="#4F24FF" stroke-width="1.5" stroke-linecap="round" stroke-linejoin="round"/>
<path d="M16 22.5C17.1046 22.5 18 21.6046 18 20.5C18 19.3954 17.1046 18.5 16 18.5C14.8954 18.5 14 19.3954 14 20.5C14 21.6046 14.8954 22.5 16 22.5Z" stroke="#4F24FF" stroke-width="1.5" stroke-linecap="round" stroke-linejoin="round"/>
<path d="M22 12.5V14.5H19C18.45 14.5 18 14.05 18 13.5V10.5C18 9.95 18.45 9.5 19 9.5H20.29L22 12.5Z" stroke="#4F24FF" stroke-width="1.5" stroke-linecap="round" stroke-linejoin="round"/>
<path d="M9.00017 5.40999C9.02017 6.15999 8.82019 6.88001 8.46019 7.49001C8.26019 7.85001 8.00017 8.18002 7.69017 8.44002C7.01017 9.09002 6.1002 9.48002 5.0902 9.50002C3.8502 9.53002 2.73017 8.99001 2.00017 8.12001C1.86017 7.97001 1.74018 7.80002 1.63018 7.63002C1.24018 7.04002 1.02017 6.34005 1.00017 5.59005C0.970172 4.33005 1.53016 3.18001 2.43016 2.43001C3.11016 1.87001 3.97014 1.52002 4.91014 1.50002C5.96014 1.48002 6.92019 1.86002 7.64019 2.50002C8.45019 3.21002 8.97017 4.23999 9.00017 5.40999Z" stroke="#4F24FF" stroke-width="1.5" stroke-miterlimit="10" stroke-linecap="round" stroke-linejoin="round"/>
<path d="M3.44043 5.53003L4.45044 6.48999L6.54041 4.46997" stroke="#4F24FF" stroke-width="1.5" stroke-linecap="round" stroke-linejoin="round"/>
</svg>
