<svg width="18" height="19" viewBox="0 0 18 19" fill="none" xmlns="http://www.w3.org/2000/svg">
<path d="M15.8101 6.93503V12.065C15.8101 12.905 15.3601 13.685 14.6326 14.1125L10.1776 16.685C9.45012 17.105 8.55012 17.105 7.81512 16.685L3.36012 14.1125C2.63262 13.6925 2.18262 12.9125 2.18262 12.065V6.93503C2.18262 6.09503 2.63262 5.31499 3.36012 4.88749L7.81512 2.315C8.54262 1.895 9.44262 1.895 10.1776 2.315L14.6326 4.88749C15.3601 5.31499 15.8101 6.08753 15.8101 6.93503Z" stroke="#4F24FF" stroke-width="1.5" stroke-linecap="round" stroke-linejoin="round"/>
<path d="M9.00043 8.74998C9.96555 8.74998 10.7479 7.96759 10.7479 7.00247C10.7479 6.03735 9.96555 5.255 9.00043 5.255C8.03531 5.255 7.25293 6.03735 7.25293 7.00247C7.25293 7.96759 8.03531 8.74998 9.00043 8.74998Z" stroke="#4F24FF" stroke-width="1.5" stroke-linecap="round" stroke-linejoin="round"/>
<path d="M12 12.995C12 11.645 10.6575 10.55 9 10.55C7.3425 10.55 6 11.645 6 12.995" stroke="#4F24FF" stroke-width="1.5" stroke-linecap="round" stroke-linejoin="round"/>
</svg>
