<svg width="22" height="22" viewBox="0 0 22 22" fill="none" xmlns="http://www.w3.org/2000/svg">
<path d="M10.9998 0.166748C5.03067 0.166748 0.166504 5.03091 0.166504 11.0001C0.166504 16.9692 5.03067 21.8334 10.9998 21.8334C16.969 21.8334 21.8332 16.9692 21.8332 11.0001C21.8332 5.03091 16.969 0.166748 10.9998 0.166748ZM16.1782 8.50842L10.0357 14.6509C9.884 14.8026 9.67817 14.8892 9.4615 14.8892C9.24484 14.8892 9.039 14.8026 8.88734 14.6509L5.8215 11.5851C5.50734 11.2709 5.50734 10.7509 5.8215 10.4367C6.13567 10.1226 6.65567 10.1226 6.96984 10.4367L9.4615 12.9284L15.0298 7.36008C15.344 7.04592 15.864 7.04592 16.1782 7.36008C16.4923 7.67425 16.4923 8.18341 16.1782 8.50842Z" fill="#FF6F1D"/>
</svg>
