<svg width="24" height="24" viewBox="0 0 24 24" fill="none" xmlns="http://www.w3.org/2000/svg">
<path d="M21.3796 5.95667L14.6596 1.255C12.828 -0.0283349 10.0163 0.0416653 8.25462 1.40667L2.40962 5.96833C1.24296 6.87833 0.321289 8.745 0.321289 10.215V18.265C0.321289 21.24 2.73629 23.6667 5.71129 23.6667H18.288C21.263 23.6667 23.678 21.2517 23.678 18.2767V10.3667C23.678 8.79167 22.663 6.855 21.3796 5.95667ZM12.8746 19C12.8746 19.4783 12.478 19.875 11.9996 19.875C11.5213 19.875 11.1246 19.4783 11.1246 19V15.5C11.1246 15.0217 11.5213 14.625 11.9996 14.625C12.478 14.625 12.8746 15.0217 12.8746 15.5V19Z" fill="#4F24FF"/>
</svg>
