<svg width="24" height="24" viewBox="0 0 24 24" fill="none" xmlns="http://www.w3.org/2000/svg">
<path d="M11.9997 17.9616L6.10134 12.0649L7.28134 10.8649L11.1663 14.7499V0.333252H12.833V14.7499L16.7163 10.8666L17.898 12.0649L11.9997 17.9616ZM3.02634 23.6666C2.25856 23.6666 1.61801 23.4099 1.10467 22.8966C0.591341 22.3833 0.334119 21.7421 0.333008 20.9733V16.9349H1.99967V20.9733C1.99967 21.2299 2.10634 21.4655 2.31967 21.6799C2.53301 21.8944 2.76801 22.001 3.02467 21.9999H20.9747C21.2302 21.9999 21.4652 21.8933 21.6797 21.6799C21.8941 21.4666 22.0008 21.231 21.9997 20.9733V16.9349H23.6663V20.9733C23.6663 21.741 23.4097 22.3816 22.8963 22.8949C22.383 23.4083 21.7419 23.6655 20.973 23.6666H3.02634Z" fill="white"/>
</svg>
