<svg width="18" height="20" viewBox="0 0 18 20" fill="none" xmlns="http://www.w3.org/2000/svg">
<path d="M16.9038 11.9169C17.1904 11.6903 17.4224 11.3997 17.582 11.0673C17.7416 10.7349 17.8246 10.3695 17.8246 9.99927C17.8246 9.62902 17.7416 9.26368 17.582 8.93127C17.4224 8.59886 17.1904 8.30821 16.9038 8.08159C13.1928 5.14769 9.04893 2.83516 4.6273 1.23058L3.81885 0.937113C2.27376 0.376736 0.640769 1.44436 0.431538 3.07489C-0.152961 7.67183 -0.152961 12.3267 0.431538 16.9236C0.642007 18.5542 2.27376 19.6218 3.81885 19.0614L4.6273 18.768C9.04893 17.1634 13.1928 14.8509 16.9038 11.9169Z" fill="white"/>
</svg>
