<svg width="24" height="24" viewBox="0 0 24 24" fill="none" xmlns="http://www.w3.org/2000/svg">
<path d="M11.9987 17.9616L6.10037 12.0649L7.28036 10.8649L11.1654 14.7499V0.333252H12.832V14.7499L16.7154 10.8666L17.897 12.0649L11.9987 17.9616ZM3.02536 23.6666C2.25759 23.6666 1.61703 23.4099 1.1037 22.8966C0.590364 22.3833 0.333142 21.7421 0.332031 20.9733V16.9349H1.9987V20.9733C1.9987 21.2299 2.10536 21.4655 2.3187 21.6799C2.53203 21.8944 2.76703 22.001 3.0237 21.9999H20.9737C21.2293 21.9999 21.4643 21.8933 21.6787 21.6799C21.8931 21.4666 21.9998 21.231 21.9987 20.9733V16.9349H23.6654V20.9733C23.6654 21.741 23.4087 22.3816 22.8954 22.8949C22.382 23.4083 21.7409 23.6655 20.972 23.6666H3.02536Z" fill="#4F24FF"/>
</svg>
