<svg width="24" height="22" viewBox="0 0 24 22" fill="none" xmlns="http://www.w3.org/2000/svg">
<path d="M18.4687 21.5C18.3109 21.5006 18.1568 21.4514 18.0286 21.3594L12 16.9888L5.97139 21.3594C5.84259 21.4528 5.68742 21.5028 5.52832 21.5023C5.36921 21.5017 5.21441 21.4505 5.08629 21.3562C4.95818 21.2618 4.86339 21.1292 4.81563 20.9774C4.76787 20.8256 4.76961 20.6626 4.82061 20.5119L7.17186 13.5477L1.07811 9.36876C0.946113 9.27835 0.846491 9.14809 0.793797 8.99702C0.741103 8.84596 0.7381 8.682 0.785225 8.5291C0.83235 8.37621 0.927135 8.24239 1.05573 8.1472C1.18432 8.05201 1.33999 8.00043 1.49998 8.00001H9.0178L11.2865 1.01798C11.3354 0.867243 11.4308 0.735857 11.559 0.642674C11.6871 0.54949 11.8415 0.499298 12 0.499298C12.1584 0.499298 12.3128 0.54949 12.441 0.642674C12.5692 0.735857 12.6645 0.867243 12.7134 1.01798L14.9822 8.00236H22.5C22.6602 8.00228 22.8162 8.05349 22.9452 8.1485C23.0741 8.24351 23.1693 8.37732 23.2167 8.53033C23.2642 8.68334 23.2613 8.84752 23.2087 8.99881C23.1561 9.15011 23.0564 9.28058 22.9242 9.37111L16.8281 13.5477L19.178 20.51C19.216 20.6227 19.2267 20.7429 19.2092 20.8606C19.1917 20.9783 19.1464 21.0901 19.0771 21.1868C19.0078 21.2835 18.9165 21.3624 18.8107 21.4168C18.7049 21.4713 18.5877 21.4998 18.4687 21.5Z" fill="#FFEA29"/>
</svg>
