<svg width="16" height="16" viewBox="0 0 16 16" fill="none" xmlns="http://www.w3.org/2000/svg">
<path d="M14.6665 8.41334V9.78667C14.6665 10.16 14.3598 10.4667 13.9798 10.4667H12.6932C11.9732 10.4667 11.3132 9.94 11.2532 9.22C11.2132 8.8 11.3732 8.40667 11.6532 8.13334C11.8998 7.88 12.2398 7.73334 12.6132 7.73334H13.9798C14.3598 7.73334 14.6665 8.04 14.6665 8.41334Z" fill="white"/>
<path d="M10.253 9.30667C10.193 8.60667 10.4463 7.92001 10.953 7.42001C11.3797 6.98667 11.973 6.73334 12.613 6.73334H12.993C13.1797 6.73334 13.333 6.58001 13.3063 6.39334C13.1263 5.10001 12.0063 4.10001 10.6663 4.10001H3.99967C2.52634 4.10001 1.33301 5.29334 1.33301 6.76667V11.4333C1.33301 12.9067 2.52634 14.1 3.99967 14.1H10.6663C12.013 14.1 13.1263 13.1 13.3063 11.8067C13.333 11.62 13.1797 11.4667 12.993 11.4667H12.693C11.4263 11.4667 10.3597 10.52 10.253 9.30667ZM8.66634 7.93334H4.66634C4.39301 7.93334 4.16634 7.71334 4.16634 7.43334C4.16634 7.15334 4.39301 6.93334 4.66634 6.93334H8.66634C8.93967 6.93334 9.16634 7.16001 9.16634 7.43334C9.16634 7.70667 8.93967 7.93334 8.66634 7.93334Z" fill="white"/>
<path d="M9.47311 2.65333C9.64644 2.83333 9.49311 3.09999 9.23978 3.09999H4.01978C3.29311 3.09999 2.61311 3.31333 2.04644 3.67999C1.78644 3.84666 1.43311 3.66666 1.55978 3.37999C1.93311 2.50666 2.80644 1.89999 3.81311 1.89999H7.55978C8.33311 1.89999 9.01978 2.17333 9.47311 2.65333Z" fill="white"/>
</svg>
